<svg width="100" height="100" viewBox="0 0 100 100" fill="none" xmlns="http://www.w3.org/2000/svg">
<rect width="100" height="100" fill="white"/>
<path d="M86.6 81.7H12.8C10.2 81.7 8 79.6 8 76.9V23.8C8 21.1 10.1 19 12.8 19H86.6C89.2 19 91.4 21.1 91.4 23.8V76.9C91.3 79.5 89.2 81.7 86.6 81.7Z" fill="#EDF1F4"/>
<path d="M28.4 19H12.8C10.1 19 8 21.1 8 23.8V76.9C8 79.5 10.1 81.7 12.8 81.7H28.4V19Z" fill="#006FEE"/>
<path d="M76.7001 49.4992V61.8992C76.7001 63.3992 75.6001 64.5992 74.1001 64.7992L63.0001 66.3992C61.2001 66.6992 59.6001 65.2992 59.6001 63.4992V51.0992C59.6001 49.5992 60.7001 48.3992 62.2001 48.1992L73.3001 46.5992C75.1001 46.2992 76.7001 47.6992 76.7001 49.4992Z" fill="#006FEE"/>
<path d="M52.7 64.7998L44.4 60.2998C43.5 59.7998 43 58.8998 43 57.9998V45.5998C43 43.5998 45.2 42.2998 46.9 43.2998L55.2 47.7998C56.1 48.2998 56.6 49.1998 56.6 50.0998V62.4998C56.6 64.4998 54.4 65.6998 52.7 64.7998Z" fill="#0062C4"/>
<path d="M57.1998 46.1996L48.1998 41.2996C46.7998 40.5996 47.1998 38.4996 48.6998 38.2996L60.4998 36.5996C60.7998 36.5996 61.1998 36.5996 61.4998 36.7996L70.4998 41.6996C71.8998 42.3996 71.4998 44.4996 69.9998 44.6996L58.1998 46.3996C57.7998 46.4996 57.4998 46.3996 57.1998 46.1996Z" fill="#2CD400"/>
<path d="M24.2002 38.4004H12.2002C11.9002 38.4004 11.7002 38.2004 11.7002 37.9004V36.9004C11.7002 36.6004 11.9002 36.4004 12.2002 36.4004H24.1002C24.4002 36.4004 24.6002 36.6004 24.6002 36.9004V37.9004C24.7002 38.1004 24.5002 38.4004 24.2002 38.4004Z" fill="white"/>
<path d="M23.1002 29.4998H13.3002C12.4002 29.4998 11.7002 28.7998 11.7002 27.8998V26.8998C11.7002 25.9998 12.4002 25.2998 13.3002 25.2998H23.0002C23.9002 25.2998 24.6002 25.9998 24.6002 26.8998V27.7998C24.7002 28.7998 24.0002 29.4998 23.1002 29.4998Z" fill="#2CD400"/>
<path d="M24.2002 42.4004H12.2002C11.9002 42.4004 11.7002 42.2004 11.7002 41.9004V40.9004C11.7002 40.6004 11.9002 40.4004 12.2002 40.4004H24.1002C24.4002 40.4004 24.6002 40.6004 24.6002 40.9004V41.9004C24.7002 42.1004 24.5002 42.4004 24.2002 42.4004Z" fill="white"/>
<path d="M24.2002 46.4004H12.2002C11.9002 46.4004 11.7002 46.2004 11.7002 45.9004V44.9004C11.7002 44.6004 11.9002 44.4004 12.2002 44.4004H24.1002C24.4002 44.4004 24.6002 44.6004 24.6002 44.9004V45.9004C24.7002 46.1004 24.5002 46.4004 24.2002 46.4004Z" fill="white"/>
<path d="M24.2002 50.4004H12.2002C11.9002 50.4004 11.7002 50.2004 11.7002 49.9004V48.9004C11.7002 48.6004 11.9002 48.4004 12.2002 48.4004H24.1002C24.4002 48.4004 24.6002 48.6004 24.6002 48.9004V49.9004C24.7002 50.1004 24.5002 50.4004 24.2002 50.4004Z" fill="white"/>
<path d="M82.2 31.4996C83.9673 31.4996 85.4 30.0669 85.4 28.2996C85.4 26.5323 83.9673 25.0996 82.2 25.0996C80.4327 25.0996 79 26.5323 79 28.2996C79 30.0669 80.4327 31.4996 82.2 31.4996Z" fill="white"/>
<path d="M81.4002 77.5996H37.2002C36.7002 77.5996 36.2002 77.1996 36.2002 76.5996V72.0996C36.2002 71.5996 36.6002 71.0996 37.2002 71.0996H81.4002C81.9002 71.0996 82.4002 71.4996 82.4002 72.0996V76.5996C82.4002 77.0996 82.0002 77.5996 81.4002 77.5996Z" fill="white"/>
<path d="M55.3999 29.2998H36.3999C35.7999 29.2998 35.3999 28.7998 35.3999 28.2998C35.3999 27.6998 35.8999 27.2998 36.3999 27.2998H55.3999C55.9999 27.2998 56.3999 27.7998 56.3999 28.2998C56.4999 28.7998 55.9999 29.2998 55.3999 29.2998Z" fill="white"/>
</svg>
