<svg width="100" height="100" viewBox="0 0 100 100" fill="none" xmlns="http://www.w3.org/2000/svg">
<rect width="100" height="100" fill="white"/>
<path d="M60.756 88H34.424C30.364 88 27 84.6236 27 80.5486V22.4514C27 18.3764 30.364 15 34.424 15H60.756C64.816 15 68.18 18.3764 68.18 22.4514V80.5486C68.064 84.6236 64.816 88 60.756 88Z" fill="#EDF1F4"/>
<path d="M68.064 25.8278V22.4514C68.064 18.3764 64.7 15 60.64 15H34.424C30.364 15 27 18.3764 27 22.4514V25.8278H68.064Z" fill="#006FEE"/>
<path d="M27 75.6582V80.5482C27 84.6231 30.364 87.9995 34.424 87.9995H60.756C64.816 87.9995 68.18 84.6231 68.18 80.5482V75.6582H27Z" fill="#006FEE"/>
<path d="M47.5318 83.2266C49.1335 83.2266 50.4318 81.9235 50.4318 80.316C50.4318 78.7084 49.1335 77.4053 47.5318 77.4053C45.9302 77.4053 44.6318 78.7084 44.6318 80.316C44.6318 81.9235 45.9302 83.2266 47.5318 83.2266Z" fill="white"/>
<path d="M45.3281 42.2437H32.3361C31.5241 42.2437 30.8281 41.5451 30.8281 40.7301V34.5595C30.8281 33.7445 31.5241 33.0459 32.3361 33.0459H45.3281C46.1401 33.0459 46.8361 33.7445 46.8361 34.5595V40.7301C46.8361 41.5451 46.1401 42.2437 45.3281 42.2437Z" fill="white"/>
<path d="M62.728 42.2437H49.736C48.924 42.2437 48.228 41.5451 48.228 40.7301V34.5595C48.228 33.7445 48.924 33.0459 49.736 33.0459H62.728C63.54 33.0459 64.236 33.7445 64.236 34.5595V40.7301C64.236 41.5451 63.54 42.2437 62.728 42.2437Z" fill="white"/>
<path d="M45.3281 53.8872H32.3361C31.5241 53.8872 30.8281 53.1887 30.8281 52.3737V46.203C30.8281 45.388 31.5241 44.6895 32.3361 44.6895H45.3281C46.1401 44.6895 46.8361 45.388 46.8361 46.203V52.3737C46.8361 53.1887 46.1401 53.8872 45.3281 53.8872Z" fill="white"/>
<path d="M62.728 53.8872H49.736C48.924 53.8872 48.228 53.1887 48.228 52.3737V46.203C48.228 45.388 48.924 44.6895 49.736 44.6895H62.728C63.54 44.6895 64.236 45.388 64.236 46.203V52.3737C64.236 53.1887 63.54 53.8872 62.728 53.8872Z" fill="white"/>
<path d="M82.3321 69.1386H57.3921C55.8841 69.1386 54.7241 67.9743 54.7241 66.4608V50.8595C54.7241 49.3459 55.8841 48.1816 57.3921 48.1816H82.3321C83.8401 48.1816 85.0001 49.3459 85.0001 50.8595V66.4608C85.0001 67.9743 83.8401 69.1386 82.3321 69.1386Z" fill="#2CD400"/>
<path d="M61.7999 57.4962C63.4015 57.4962 64.6999 56.193 64.6999 54.5855C64.6999 52.978 63.4015 51.6748 61.7999 51.6748C60.1983 51.6748 58.8999 52.978 58.8999 54.5855C58.8999 56.193 60.1983 57.4962 61.7999 57.4962Z" fill="white"/>
<path d="M80.0121 54.5855H68.5281C68.0641 54.5855 67.6001 54.2362 67.6001 53.6541C67.6001 53.1884 67.9481 52.7227 68.5281 52.7227H80.0121C80.4761 52.7227 80.9401 53.0719 80.9401 53.6541C80.9401 54.2362 80.4761 54.5855 80.0121 54.5855Z" fill="white"/>
<path d="M80.0121 58.0787H68.5281C68.0641 58.0787 67.6001 57.7294 67.6001 57.1472C67.6001 56.6815 67.9481 56.2158 68.5281 56.2158H80.0121C80.4761 56.2158 80.9401 56.5651 80.9401 57.1472C80.9401 57.7294 80.4761 58.0787 80.0121 58.0787Z" fill="white"/>
<path d="M74.4441 61.5708H68.5281C68.0641 61.5708 67.6001 61.2216 67.6001 60.6394C67.6001 60.1737 67.9481 59.708 68.5281 59.708H74.4441C74.9081 59.708 75.3721 60.0573 75.3721 60.6394C75.3721 61.2216 74.9081 61.5708 74.4441 61.5708Z" fill="white"/>
<path d="M49.5041 65.0643H31.7561C31.2921 65.0643 30.8281 64.715 30.8281 64.1329V62.3865C30.8281 61.9208 31.1761 61.4551 31.7561 61.4551H49.5041C49.9681 61.4551 50.4321 61.8044 50.4321 62.3865V64.1329C50.4321 64.715 49.9681 65.0643 49.5041 65.0643Z" fill="white"/>
</svg>
