<svg width="100" height="100" viewBox="0 0 100 100" fill="none" xmlns="http://www.w3.org/2000/svg">
<rect width="100" height="100" fill="white"/>
<path d="M82.8473 57.7967H18.0382C15.1756 57.7967 13 55.5203 13 52.7886V20.0081C13 17.2764 15.2901 15 18.0382 15H82.8473C85.7099 15 87.8855 17.2764 87.8855 20.0081V52.6748C88 55.5203 85.7099 57.7967 82.8473 57.7967Z" fill="#EDF1F4"/>
<path d="M26.5116 72.5935C29.3573 72.5935 31.6642 70.3003 31.6642 67.4716C31.6642 64.6428 29.3573 62.3496 26.5116 62.3496C23.6658 62.3496 21.3589 64.6428 21.3589 67.4716C21.3589 70.3003 23.6658 72.5935 26.5116 72.5935Z" fill="#2CD400"/>
<path d="M15.6338 85C15.6338 79.0813 20.4429 74.3008 26.3971 74.3008C32.3513 74.3008 37.1605 79.0813 37.1605 85" fill="#006FEE"/>
<path d="M50.4432 72.5935C53.2889 72.5935 55.5959 70.3003 55.5959 67.4716C55.5959 64.6428 53.2889 62.3496 50.4432 62.3496C47.5975 62.3496 45.2905 64.6428 45.2905 67.4716C45.2905 70.3003 47.5975 72.5935 50.4432 72.5935Z" fill="#2CD400"/>
<path d="M39.6797 85C39.6797 79.0813 44.4888 74.3008 50.443 74.3008C56.3972 74.3008 61.2064 79.0813 61.2064 85" fill="#006FEE"/>
<path d="M74.4886 72.5935C77.3343 72.5935 79.6413 70.3003 79.6413 67.4716C79.6413 64.6428 77.3343 62.3496 74.4886 62.3496C71.6429 62.3496 69.3359 64.6428 69.3359 67.4716C69.3359 70.3003 71.6429 72.5935 74.4886 72.5935Z" fill="#2CD400"/>
<path d="M63.6108 85C63.6108 79.0813 68.42 74.3008 74.3742 74.3008C80.3284 74.3008 85.1376 79.0813 85.1376 85" fill="#006FEE"/>
<path d="M88 21.4878V20.0081C88 17.2764 85.7099 15 82.8473 15H18.0382C15.2901 15 13 17.2764 13 20.0081V21.4878H88Z" fill="#006FEE"/>
<path d="M81.2441 34.6911H51.1296C50.7861 34.6911 50.5571 34.4634 50.5571 34.122V30.5935C50.5571 30.2521 50.7861 30.0244 51.1296 30.0244H81.2441C81.5877 30.0244 81.8167 30.2521 81.8167 30.5935V34.122C81.8167 34.3496 81.5877 34.6911 81.2441 34.6911Z" fill="white"/>
<path d="M81.2441 41.5202H51.1296C50.7861 41.5202 50.5571 41.2925 50.5571 40.9511V37.4226C50.5571 37.0812 50.7861 36.8535 51.1296 36.8535H81.2441C81.5877 36.8535 81.8167 37.0812 81.8167 37.4226V40.9511C81.8167 41.1787 81.5877 41.5202 81.2441 41.5202Z" fill="white"/>
<path d="M38.3054 26.4961H26.168C25.481 26.4961 24.7939 27.0652 24.7939 27.8619V29.0002H35.9008C37.1604 29.0002 38.1909 30.0245 38.1909 31.2766V47.4392H39.3359C40.023 47.4392 40.71 46.8701 40.71 46.0733V29.0002C40.71 27.6343 39.5649 26.4961 38.3054 26.4961Z" fill="white"/>
<path d="M35.9009 50.74H22.7329C22.0459 50.74 21.3589 50.1709 21.3589 49.3741V31.1627C21.3589 30.4798 21.9314 29.7969 22.7329 29.7969H35.9009C36.5879 29.7969 37.2749 30.366 37.2749 31.1627V49.3741C37.2749 50.1709 36.7024 50.74 35.9009 50.74Z" fill="white"/>
<path d="M53.0762 51.9915C54.4675 51.9915 55.5953 50.8704 55.5953 49.4875C55.5953 48.1045 54.4675 46.9834 53.0762 46.9834C51.685 46.9834 50.5571 48.1045 50.5571 49.4875C50.5571 50.8704 51.685 51.9915 53.0762 51.9915Z" fill="white"/>
<path d="M59.9463 51.9915C61.3376 51.9915 62.4654 50.8704 62.4654 49.4875C62.4654 48.1045 61.3376 46.9834 59.9463 46.9834C58.5551 46.9834 57.4272 48.1045 57.4272 49.4875C57.4272 50.8704 58.5551 51.9915 59.9463 51.9915Z" fill="white"/>
<path d="M66.8169 51.9915C68.2082 51.9915 69.336 50.8704 69.336 49.4875C69.336 48.1045 68.2082 46.9834 66.8169 46.9834C65.4257 46.9834 64.2979 48.1045 64.2979 49.4875C64.2979 50.8704 65.4257 51.9915 66.8169 51.9915Z" fill="white"/>
</svg>
