<svg width="160" height="30" viewBox="0 0 160 30" fill="none" xmlns="http://www.w3.org/2000/svg">
<g clip-path="url(#clip0)">
<path d="M10.5944 12.823H3.7881C3.49217 12.823 3.19624 13.0616 3.13705 13.3598L0.000217034 29.165C-0.0589686 29.5824 0.23696 29.9999 0.651259 29.9999H1.18393C1.42067 29.9999 1.65741 29.8807 1.77579 29.7017L11.1863 13.8966C11.423 13.4194 11.0679 12.823 10.5944 12.823Z" fill="white"/>
<path d="M21.3666 12.7038C23.1421 12.2266 24.5034 10.5567 24.5034 8.58847V4.41352C24.5034 1.96819 22.5503 0 20.1237 0H6.33343C6.0375 0 5.74158 0.238569 5.68239 0.536779L4.26194 7.75348C4.20275 8.17097 4.49868 8.58847 4.91298 8.58847H19.1767C19.6502 8.58847 20.0053 9.12525 19.7686 9.54274L10.1213 28.9861C9.88457 29.4632 10.2397 29.9404 10.7132 29.9404H20.1237C22.5503 29.9404 24.5034 27.9722 24.5034 25.5268V17.1173C24.5034 15.1491 23.2013 13.4791 21.3666 13.002C21.2482 12.9423 21.2482 12.7634 21.3666 12.7038Z" fill="white"/>
<path d="M50.3669 19.3837C50.3669 20.1591 50.1893 20.8748 49.8934 21.4712C49.5383 22.0676 49.124 22.5447 48.5321 22.9622C47.9402 23.3797 47.2892 23.6183 46.5198 23.8569C45.7504 24.0358 44.981 24.1551 44.1524 24.1551H35.2153V5.66602H45.3953C46.0463 5.66602 46.579 5.7853 47.1116 6.08351C47.6443 6.38172 48.0586 6.73957 48.4137 7.15707C48.7688 7.57456 49.0648 8.11134 49.2423 8.64812C49.4199 9.1849 49.5383 9.78132 49.5383 10.3777C49.5383 11.2724 49.3015 12.1074 48.8872 12.8827C48.4729 13.6581 47.8219 14.2545 46.9341 14.672C47.9994 14.9702 48.828 15.5666 49.4199 16.342C50.0709 17.1173 50.3669 18.1312 50.3669 19.3837ZM39.4767 9.30419V13.1213H43.6197C44.0932 13.1213 44.5075 12.9424 44.8626 12.6441C45.2177 12.3459 45.3953 11.8688 45.3953 11.2127C45.3953 10.6163 45.2177 10.1392 44.9218 9.78132C44.6258 9.42347 44.2115 9.30419 43.7972 9.30419H39.4767ZM46.0463 18.5487C46.0463 17.9523 45.8687 17.4752 45.5728 17.1173C45.2177 16.6998 44.8626 16.5209 44.3299 16.5209H39.4767V20.5169H44.1524C44.685 20.5169 45.1585 20.338 45.5136 19.9801C45.8687 19.6223 46.0463 19.1451 46.0463 18.5487Z" fill="white"/>
<path d="M60.7244 20.5169C61.4346 20.5169 62.0264 20.338 62.5591 20.0398C63.0918 19.7416 63.4469 19.3241 63.7428 18.8469C64.0387 18.3698 64.2755 17.7734 64.3939 17.1173C64.5122 16.4612 64.5714 15.8052 64.5714 15.1491V5.66602H68.7736V15.0895C68.7736 16.342 68.596 17.5944 68.3001 18.668C68.0042 19.8012 67.4715 20.7555 66.8205 21.5905C66.1694 22.4255 65.3408 23.0815 64.2755 23.5587C63.2693 24.0358 62.0264 24.2744 60.606 24.2744C59.1263 24.2744 57.8834 24.0358 56.8773 23.499C55.8711 23.0219 54.9834 22.3062 54.3915 21.4712C53.7405 20.6362 53.267 19.6819 52.971 18.5487C52.6751 17.4155 52.4976 16.2823 52.4976 15.0895V5.66602H56.8181V15.0895C56.8181 15.8052 56.8773 16.4612 56.9957 17.1173C57.114 17.7734 57.3508 18.3102 57.6467 18.8469C57.9426 19.3241 58.3569 19.7416 58.8304 20.0398C59.4223 20.338 60.0141 20.5169 60.7244 20.5169Z" fill="white"/>
<path d="M72.0879 24.1551V5.66602H76.2901V24.0954H72.0879V24.1551Z" fill="white"/>
<path d="M79.8413 24.1551V5.66602H84.0435V20.338H92.9213V24.0954H79.8413V24.1551Z" fill="white"/>
<path d="M94.9336 24.1551V5.66602H101.74C103.279 5.66602 104.581 5.90458 105.705 6.38172C106.83 6.85886 107.777 7.51492 108.546 8.34991C109.316 9.1849 109.908 10.1392 110.263 11.2724C110.677 12.4056 110.855 13.5984 110.855 14.8509C110.855 16.2823 110.618 17.5348 110.203 18.668C109.789 19.8012 109.138 20.7555 108.369 21.5905C107.599 22.4255 106.593 23.0219 105.469 23.4394C104.344 23.8569 103.101 24.0954 101.74 24.0954H94.9336V24.1551ZM106.593 14.9105C106.593 14.0756 106.475 13.3599 106.297 12.7038C106.12 12.0477 105.765 11.4513 105.35 10.9742C104.936 10.497 104.403 10.1392 103.811 9.84097C103.22 9.6024 102.509 9.42347 101.799 9.42347H99.195V20.3976H101.799C102.569 20.3976 103.279 20.2783 103.871 19.9801C104.462 19.6819 104.995 19.3241 105.35 18.8469C105.765 18.3698 106.06 17.7734 106.297 17.1173C106.475 16.4016 106.593 15.6859 106.593 14.9105Z" fill="white"/>
<path d="M126.479 9.42347H120.916V24.0954H116.714V9.42347H111.15V5.66602H126.539V9.42347H126.479Z" fill="white"/>
<path d="M131.688 5.66602H135.476L142.164 24.0954H137.843L136.423 19.9801H130.741L129.321 24.0954H125L131.688 5.66602ZM135.713 17.0577L133.582 10.5567L131.392 17.0577H135.713Z" fill="white"/>
<path d="M159.091 19.3837C159.091 20.1591 158.913 20.8748 158.618 21.4712C158.262 22.0676 157.848 22.5447 157.256 22.9622C156.664 23.3797 156.013 23.6183 155.244 23.8569C154.475 24.0358 153.705 24.1551 152.876 24.1551H143.939V5.66602H154.119C154.77 5.66602 155.303 5.7853 155.836 6.08351C156.368 6.38172 156.783 6.73957 157.138 7.15707C157.493 7.57456 157.789 8.11134 157.966 8.64812C158.144 9.1849 158.262 9.78132 158.262 10.3777C158.262 11.2724 158.026 12.1074 157.611 12.8827C157.197 13.6581 156.546 14.2545 155.658 14.672C156.724 14.9702 157.552 15.5666 158.144 16.342C158.795 17.1173 159.091 18.1312 159.091 19.3837ZM148.201 9.30419V13.1213H152.344C152.817 13.1213 153.232 12.9424 153.587 12.6441C153.942 12.3459 154.119 11.8688 154.119 11.2127C154.119 10.6163 153.942 10.1392 153.646 9.78132C153.35 9.42347 152.936 9.30419 152.521 9.30419H148.201ZM154.83 18.5487C154.83 17.9523 154.652 17.4752 154.356 17.1173C154.001 16.6998 153.646 16.5209 153.113 16.5209H148.26V20.5169H152.936C153.468 20.5169 153.942 20.338 154.297 19.9801C154.593 19.6223 154.83 19.1451 154.83 18.5487Z" fill="white"/>
</g>
<defs>
<clipPath id="clip0">
<rect width="159.091" height="30" fill="white"/>
</clipPath>
</defs>
</svg>
